<?xml version="1.0" encoding="UTF-8" standalone="no"?>
<svg width="131px" height="121px" viewBox="0 0 131 121" version="1.1" xmlns="http://www.w3.org/2000/svg" xmlns:xlink="http://www.w3.org/1999/xlink" xmlns:sketch="http://www.bohemiancoding.com/sketch/ns">
    <!-- Generator: Sketch 3.5.1 (25234) - http://www.bohemiancoding.com/sketch -->
    <title>Lock + ICON + Path 208</title>
    <desc>Created with Sketch.</desc>
    <defs></defs>
    <g id="Page-1" stroke="none" stroke-width="1" fill="none" fill-rule="evenodd" sketch:type="MSPage">
        <g id="Artboard-1" sketch:type="MSArtboardGroup" transform="translate(-708.000000, -451.000000)">
            <g id="Desktop-view" sketch:type="MSLayerGroup" transform="translate(164.000000, 178.000000)">
                <g id="Group" transform="translate(406.000000, 273.000000)" sketch:type="MSShapeGroup">
                    <g id="Lock-+-ICON-+-Path-208" transform="translate(138.000000, 0.000000)">
                        <g id="Lock">
                            <circle id="Base" stroke-opacity="0.201002038" stroke="#49105F" fill="#FFFFFF" cx="60.5" cy="61.5" r="58.5"></circle>
                            <path d="M130.182933,50.0482 L120.4254,62.1992 C120.1528,62.5394667 119.731333,62.7444 119.292467,62.7444 C118.855533,62.7444 118.439867,62.5472 118.159533,62.1992 L108.402,50.0482 C107.8974,49.4218 108.0018,48.5073333 108.6224,48.0085333 C109.2488,47.5039333 110.161333,47.6083333 110.660133,48.2366667 L117.736133,57.0410667 C116.007733,26.8946 90.9420667,2.9 60.3722,2.9 C28.6829333,2.9 2.9,28.6829333 2.9,60.3722 C2.9,92.0614667 28.6829333,117.8444 60.3722,117.8444 C78.2768,117.8444 94.8396667,109.716667 105.819067,95.5492 C106.310133,94.9150667 107.2246,94.8029333 107.851,95.2920667 C108.485133,95.7831333 108.5992,96.6976 108.108133,97.324 C96.5758,112.202933 79.1680667,120.7444 60.3644667,120.7444 C27.0821333,120.7444 0,93.6622667 0,60.3722 C0,27.0821333 27.0821333,0 60.3722,0 C92.6182667,0 119.043067,25.4136667 120.659333,57.2692 L127.917067,48.2289333 C128.415867,47.6025333 129.330333,47.5039333 129.956733,48.0027333 C130.583133,48.5073333 130.681733,49.4218 130.182933,50.0482 L130.182933,50.0482 Z" id="Circle" fill="#19B443"></path>
                        </g>
                        <g id="Page-1" transform="translate(40.000000, 28.000000)" fill="#49105F">
                            <path d="M33.9359245,16.7148302 C34.7318302,16.7148302 35.3776415,16.0682075 35.3776415,15.2723019 L35.3776415,14.3944528 C35.3776415,6.14818868 29.7998113,0.608490566 21.5,0.608490566 C13.2001887,0.608490566 7.62235849,6.14818868 7.62235849,14.3912075 L7.62235849,19.2120755 L4.84601887,19.2120755 C2.3455283,19.2120755 0.310735849,21.2468679 0.310735849,23.7473585 L0.310735849,50.8341132 C0.310735849,53.3346038 2.3455283,55.3693962 4.84601887,55.3693962 L38.1539811,55.3693962 C40.6544717,55.3693962 42.6892642,53.3346038 42.6892642,50.8341132 L42.6892642,23.7497925 C42.6892642,21.2493019 40.6544717,19.2153208 38.1539811,19.2153208 L10.5057925,19.2153208 L10.5057925,14.3944528 C10.5057925,7.77083019 14.8228302,3.49273585 21.5,3.49273585 C28.1804151,3.49273585 32.4942075,7.77083019 32.4942075,14.3944528 L32.4942075,15.2723019 C32.4974528,16.0682075 33.1408302,16.7148302 33.9359245,16.7148302 L33.9359245,16.7148302 Z M38.1539811,22.0955094 C39.066717,22.0955094 39.8082642,22.8370566 39.8082642,23.7497925 L39.8082642,50.8373585 C39.8082642,51.7500943 39.066717,52.4916415 38.1539811,52.4916415 L4.84601887,52.4916415 C3.93328302,52.4916415 3.19173585,51.7500943 3.19173585,50.8373585 L3.19173585,23.7497925 C3.19173585,22.8370566 3.93328302,22.0955094 4.84601887,22.0955094 L38.1539811,22.0955094 Z" id="Fill-1"></path>
                            <path d="M19.8424717,38.5628868 L19.8424717,44.7556981 C19.8424717,45.7098113 20.5840189,46.4862453 21.5,46.4862453 C22.4159811,46.4862453 23.1575283,45.7130566 23.1575283,44.7556981 L23.1575283,38.5628868 C24.4629434,37.9422264 25.37,36.6108491 25.37,35.067717 C25.37,32.9315094 23.6362075,31.197717 21.5,31.197717 C19.3637925,31.197717 17.63,32.9315094 17.63,35.067717 C17.63,36.6108491 18.5338113,37.9422264 19.8424717,38.5628868 L19.8424717,38.5628868 Z" id="Fill-2"></path>
                        </g>
                    </g>
                </g>
            </g>
        </g>
    </g>
</svg>